<?xml version="1.0" encoding="utf-8"?>
<!-- Generator: Adobe Illustrator 24.1.1, SVG Export Plug-In . SVG Version: 6.00 Build 0)  -->
<svg version="1.1" id="Layer_1" xmlns="http://www.w3.org/2000/svg" xmlns:xlink="http://www.w3.org/1999/xlink" x="0px" y="0px"
	 viewBox="0 0 512 512" style="enable-background:new 0 0 512 512;" xml:space="preserve">
<style type="text/css">
	.st0{fill:#333333;}
</style>
<g id="XMLID_1_">
	<path id="XMLID_8_" class="st0" d="M0,109.7v292.7c0,20.5,16.6,36.3,36.3,36.3h439.4c20.5,0,36.3-16.6,36.3-36.3V109.7
		c0-20.5-16.6-36.3-36.3-36.3H36.3C16.6,73.4,0,89.9,0,109.7z M476.5,109.7l-220.1,183l-220.1-183H476.5z M36.3,164.9L183,274.5
		L36.3,385V164.9z M73.4,403.1l127.8-110.4l55.2,55.2l55.2-55.2l128.6,109.7H73.4V403.1z M476.5,385L329.8,274.5l146.7-109.7V385z"
		/>
</g>
</svg>
