<?xml version="1.0" encoding="utf-8"?>
<!-- Generator: Adobe Illustrator 24.1.1, SVG Export Plug-In . SVG Version: 6.00 Build 0)  -->
<svg version="1.1" id="Layer_1" xmlns="http://www.w3.org/2000/svg" xmlns:xlink="http://www.w3.org/1999/xlink" x="0px" y="0px"
	 viewBox="0 0 512 512" style="enable-background:new 0 0 512 512;" xml:space="preserve">
<g id="XMLID_1_">
	<path id="XMLID_3_" d="M268.1,202c-13,0-22.3,5.6-29.8,15.8c-6.5,11.2-11.2,27-13,48.4c-0.9,14,0,25.1,3.7,32.6
		c3.7,7.4,8.4,11.2,15.8,11.2c6.5,0,13-1.9,17.7-5.6c5.6-3.7,10.2-10.2,14-19.5l7.4-81c-2.8-0.9-5.6-0.9-8.4-1.9
		C272.8,202,270,202,268.1,202z"/>
	<path id="XMLID_6_" d="M256,0C114.5,0,0,114.5,0,256s114.5,256,256,256s256-114.5,256-256S397.5,0,256,0z M413.3,248.6
		c-0.9,26.1-9.3,49.3-24.2,68.9c-14.9,19.5-38.2,28.9-68.9,28.9c-10.2,0-18.6-2.8-26.1-8.4c-7.4-5.6-12.1-13-15.8-23.3
		c-4.7,10.2-11.2,17.7-19.5,23.3c-7.4,4.7-16.8,7.4-27,7.4c-18.6,0-32.6-7.4-42.8-21.4c-10.2-14-13-32.6-11.2-56.8
		c2.8-29.8,12.1-54,27-72.6c14.9-17.7,33.5-27,54.9-27c14.9,0,27,1.9,36.3,4.7c9.3,2.8,19.5,7.4,29.8,14h-0.9h0.9l-9.3,102.4
		c-0.9,10.2,0,17.7,1.9,22.3c1.9,3.7,4.7,5.6,8.4,5.6c14,0,25.1-6.5,33.5-19.5c8.4-13,13-28.9,14-48.4c1.9-41-6.5-72.6-25.1-95
		c-18.6-22.3-47.5-34.4-85.6-34.4c-37.2,0-67,12.1-89.4,36.3c-22.3,24.2-34.4,57.7-36.3,99.6c-1.9,41,6.5,73.5,27,97.7
		c20.5,24.2,48.4,35.4,86.6,35.4c10.2,0,21.4-0.9,32.6-3.7c11.2-1.9,21.4-4.7,28.9-8.4l7.4,29.8c-8.4,4.7-18.6,9.3-31.7,12.1
		s-25.1,3.7-38.2,3.7c-50.3,0-89.4-14.9-116.4-44.7s-40-70.7-37.2-122.9c1.9-51.2,18.6-92.2,48.4-121.9
		c31.7-28.9,70.7-43.8,120.1-43.8c48.4,0,85.6,14,111.7,42.8C403.1,160.1,415.2,199.2,413.3,248.6L413.3,248.6z"/>
</g>
</svg>
